<svg xmlns="http://www.w3.org/2000/svg" version="1.1" xmlns:xlink="http://www.w3.org/1999/xlink" xmlns:svgjs="http://svgjs.dev/svgjs" width="2000" height="1500" viewBox="0 0 2000 1500"><rect width="2000" height="1500" fill="#cf0000"></rect><g transform="matrix(0.75,0,0,0.75,249.090909090909,578.3178725059606)"><svg viewBox="0 0 396 91" data-background-color="#cf0000" preserveAspectRatio="xMidYMid meet" height="459" width="2000" xmlns="http://www.w3.org/2000/svg" xmlns:xlink="http://www.w3.org/1999/xlink"><g id="tight-bounds" transform="matrix(1,0,0,1,0.2400000000000091,-0.11707014681891792)"><svg viewBox="0 0 395.52 91.23414029363785" height="91.23414029363785" width="395.52"><g><svg viewBox="0 0 395.52 91.23414029363785" height="91.23414029363785" width="395.52"><g><svg viewBox="0 0 395.52 91.23414029363785" height="91.23414029363785" width="395.52"><g id="textblocktransform"><svg viewBox="0 0 395.52 91.23414029363785" height="91.23414029363785" width="395.52" id="textblock"><g><svg viewBox="0 0 395.52 91.23414029363785" height="91.23414029363785" width="395.52"><g transform="matrix(1,0,0,1,0,0)"><svg width="395.52" viewBox="0.15 -35.05 153.23999999999998 35.349999999999994" height="91.23414029363785" data-palette-color="#ffffff"><path d="M24.75 0L10.15 0 10.15-3.3Q11.3-3.35 12.08-3.6 12.85-3.85 13.28-4.75 13.7-5.65 13.7-7.65L13.7-7.65 13.7-12 4.5-26.55Q3.8-27.7 3.2-29.1 2.6-30.5 2.6-31.3L2.6-31.3Q1.8-31.25 1.25-31.23 0.7-31.2 0.15-31.15L0.15-31.15 0.15-35 14.9-35 14.9-31.7Q13.45-31.8 12.5-31.4 11.55-31 11.35-30.13 11.15-29.25 11.95-27.85L11.95-27.85 15.75-21.6Q16-21.2 16.5-20.33 17-19.45 17.53-18.48 18.05-17.5 18.3-16.75L18.3-16.75 18.35-16.75Q18.6-17.35 19.2-18.55 19.8-19.75 20.7-21.65L20.7-21.65 23.3-26.75Q23.55-27.3 24-28.18 24.45-29.05 24.98-29.93 25.5-30.8 25.95-31.35L25.95-31.35Q25.15-31.3 23.9-31.25 22.65-31.2 22.1-31.15L22.1-31.15 22.1-35 33.15-35 33.15-31.7Q31.4-31.45 30.15-30.28 28.9-29.1 27.45-26.35L27.45-26.35Q25.85-23.25 24.2-20.1 22.55-16.95 20.95-13.85L20.95-13.85Q20.95-13.15 20.95-12.45 20.95-11.75 20.95-11.03 20.95-10.3 20.95-9.6 20.95-8.9 20.95-8.2L20.95-8.2Q20.95-6.85 20.9-5.6 20.85-4.35 20.75-3.7L20.75-3.7Q21.6-3.8 22.93-3.83 24.25-3.85 24.75-3.85L24.75-3.85 24.75 0ZM65-23.7L61.7-23.7Q61.7-26.4 60.95-28.18 60.2-29.95 58.82-30.83 57.45-31.7 55.55-31.65L55.55-31.65 53.15-31.65 53.15-8.2Q53.15-6.85 53.1-5.6 53.05-4.35 52.95-3.7L52.95-3.7Q53.8-3.8 55.12-3.83 56.45-3.85 56.95-3.85L56.95-3.85 56.95 0 42.35 0 42.35-3.3Q43.5-3.35 44.27-3.6 45.05-3.85 45.47-4.75 45.9-5.65 45.9-7.65L45.9-7.65 45.9-31.6 43.6-31.6Q40.75-31.55 39.1-29.65 37.45-27.75 37.45-23.7L37.45-23.7 34.15-23.7 34.4-35 64.7-35 65-23.7ZM68.34 0L68.34-3.3Q69.5-3.35 70.27-3.6 71.05-3.85 71.47-4.75 71.89-5.65 71.89-7.65L71.89-7.65 71.89-26.8Q71.89-28.15 71.97-29.4 72.05-30.65 72.09-31.3L72.09-31.3Q71.3-31.25 70.09-31.23 68.89-31.2 68.34-31.15L68.34-31.15 68.34-35 82.89-35.05Q87.84-35.05 91.47-33.58 95.09-32.1 97.42-29.6 99.75-27.1 100.9-24.03 102.05-20.95 102.05-17.85L102.05-17.85Q102.05-14.8 100.97-11.65 99.9-8.5 97.59-5.88 95.3-3.25 91.59-1.63 87.89 0 82.64 0L82.64 0 68.34 0ZM79.14-27.45L79.14-8.2Q79.14-6.85 79.09-5.6 79.05-4.35 78.94-3.7L78.94-3.7Q79.44-3.75 80.32-3.73 81.19-3.7 82.14-3.68 83.09-3.65 83.69-3.65L83.69-3.65Q86.44-3.65 88.42-4.75 90.39-5.85 91.67-7.73 92.94-9.6 93.55-11.95 94.14-14.3 94.14-16.8L94.14-16.8Q94.14-21.9 92.75-25.15 91.34-28.4 88.82-30 86.3-31.6 82.8-31.7L82.8-31.7Q81.59-31.75 80.77-31.48 79.94-31.2 79.55-30.3 79.14-29.4 79.14-27.45L79.14-27.45ZM120.54 0.3L116.19 0.3 107.29-26.65Q106.79-28.1 106.52-29.3 106.24-30.5 106.24-31.3L106.24-31.3Q105.29-31.25 104.57-31.23 103.84-31.2 103.19-31.15L103.19-31.15 103.19-35 117.94-35 117.94-31.7Q116.09-31.75 115.22-31 114.34-30.25 114.99-27.95L114.99-27.95Q115.74-25.1 116.49-22.25 117.24-19.4 117.99-16.55L117.99-16.55Q118.44-14.85 118.82-13.35 119.19-11.85 119.64-9.45L119.64-9.45 119.69-9.45Q119.89-10.15 120.29-11.6 120.69-13.05 121.17-14.73 121.64-16.4 122.02-17.78 122.39-19.15 122.54-19.7L122.54-19.7Q123.34-22.25 124.12-24.8 124.89-27.35 125.67-29.9 126.44-32.45 127.19-35L127.19-35 131.69-35Q132.39-32.7 133.12-30.4 133.84-28.1 134.54-25.8 135.24-23.5 135.97-21.2 136.69-18.9 137.39-16.6L137.39-16.6Q137.94-14.9 138.37-13.08 138.79-11.25 139.19-9.4L139.19-9.4 139.24-9.4Q139.69-11 140.17-12.73 140.64-14.45 141.14-16.3L141.14-16.3Q141.49-17.6 141.84-18.9 142.19-20.2 142.54-21.53 142.89-22.85 143.24-24.15 143.59-25.45 143.94-26.75L143.94-26.75Q144.24-27.95 144.74-29.23 145.24-30.5 145.99-31.3L145.99-31.3Q145.19-31.25 143.94-31.23 142.69-31.2 142.14-31.15L142.14-31.15 142.14-35 153.39-35 153.39-31.7Q152.29-31.65 151.32-31.13 150.34-30.6 149.54-29.45 148.74-28.3 148.09-26.35L148.09-26.35Q146.09-19.7 144.04-13.05 141.99-6.4 139.94 0.3L139.94 0.3 135.49 0.3 129.59-17.6Q128.94-19.55 128.52-21.43 128.09-23.3 127.69-25L127.69-25Q127.44-23.3 127.09-21.73 126.74-20.15 126.24-18.45L126.24-18.45 120.54 0.3Z" opacity="1" transform="matrix(1,0,0,1,0,0)" fill="#ffffff" class="wordmark-text-0" data-fill-palette-color="primary" id="text-0"></path></svg></g></svg></g></svg></g></svg></g></svg></g><defs></defs></svg><rect width="395.52" height="91.23414029363785" fill="none" stroke="none" visibility="hidden"></rect></g></svg></g></svg>